# xmcd
#
# Track frame offsets:
#	150
#	15385
#	33492
#	45900
#	60820
#	73065
#	88522
#	102087
#	115485
#	130942
#	147425
#	161310
#	175237
#	193192
#	206355
#	217370
#	235805
#	248465
#
# Disc length: 3544
#
# Revision: 3
# Processed by: cddbd v1.5.1PL0 Copyright (c) Steve Scherf et al.
# Submitted via: CDex 1.50
# Normalized: r1:DSETVAR1,TDELIM( - ),TSWAP
#
DISCID=f20dd612
DTITLE=Various Artist - Toe The Line 3... One Step Beyond! - Disc 2_2
DYEAR=1997
DGENRE=Country
TTITLE0=Rhett Akins - Don't Get Me Started
TTITLE1=Marty Stuart - You Can't Stop Love
TTITLE2=Scooter Lee - Rompin Stompin
TTITLE3=Tracy Byrd - Don't Love Make A Diamond Shine
TTITLE4=Declan Nerney - Always True
TTITLE5=Rhett Akins - What They're Talking About
TTITLE6=George Jones - Billy B. Bad
TTITLE7=Dolly Parton - Behind Closed Doors
TTITLE8=Tracy Byrd - Don't Take Her She's All I Got
TTITLE9=David Lee Murphy - Gettin Out The Good Stuff
TTITLE10=Dave Sheriff - Mighty Matador
TTITLE11=George Jones - I'll Give You Something To Drink About
TTITLE12=Back Door - On The Line
TTITLE13=Mavericks - Something Stupid
TTITLE14=Marty Stuart - Country Girls
TTITLE15=Rick Tippe - Rattlesnake Shake
TTITLE16=Jack Ingram - Ghost Of Man
TTITLE17=Steve Wariner - I Got Dreams
EXTD=YEAR: 1997
EXTT0=
EXTT1=
EXTT2=
EXTT3=
EXTT4=
EXTT5=
EXTT6=
EXTT7=
EXTT8=
EXTT9=
EXTT10=
EXTT11=
EXTT12=
EXTT13=
EXTT14=
EXTT15=
EXTT16=
EXTT17=
PLAYORDER=
